<?xml version="1.0" encoding="utf-8"?>
<!-- Generator: Adobe Illustrator 26.1.0, SVG Export Plug-In . SVG Version: 6.00 Build 0)  -->
<svg version="1.1" id="Layer_1" xmlns="http://www.w3.org/2000/svg" xmlns:xlink="http://www.w3.org/1999/xlink" x="0px" y="0px"
	 viewBox="0 0 28 28" style="enable-background:new 0 0 28 28;" xml:space="preserve">
<style type="text/css">
	.st0{clip-path:url(#SVGID_00000012472270158570505090000014725219784187880356_);}
	.st1{fill:#E9E9E0;}
	.st2{fill:none;stroke:#C8BDB8;stroke-width:0.75;stroke-miterlimit:10;}
	.st3{fill:#D9D7CA;}
	.st4{fill:#8441E8;}
	.st5{fill:#FFFFFF;}
	.st6{font-family:'Tahoma';}
	.st7{font-size:5px;}
</style>
<g id="Guides">
</g>
<g id="Background">
	<g>
		<g>
			<defs>
				
					<rect id="SVGID_1_" x="1.8" y="2.5" transform="matrix(0.7071 -0.7071 0.7071 0.7071 -7.049 13.4824)" width="21.9" height="25.5"/>
			</defs>
			<clipPath id="SVGID_00000181800669243062202250000017284596830820446643_">
				<use xlink:href="#SVGID_1_"  style="overflow:visible;"/>
			</clipPath>
			<g style="clip-path:url(#SVGID_00000181800669243062202250000017284596830820446643_);">
				<path class="st1" d="M20.8,24H7.2C6.5,24,6,23.5,6,22.8V5.2C6,4.5,6.5,4,7.2,4h13.7C21.5,4,22,4.5,22,5.2v17.7
					C22,23.5,21.5,24,20.8,24z"/>
			</g>
		</g>
	</g>
	<circle class="st2" cx="14" cy="11.5" r="5"/>
	<polyline class="st3" points="22,9 17,9 17,4 	"/>
	<rect x="6" y="19" class="st4" width="16" height="5"/>
	<text transform="matrix(1 0 0 1 9.1086 23.4121)" class="st5 st6 st7">MKV</text>
	<path class="st2" d="M16,11.1l-2.7-1.6c-0.3-0.2-0.6,0-0.6,0.4v3.1c0,0.3,0.4,0.5,0.6,0.4l2.7-1.6C16.3,11.7,16.3,11.3,16,11.1z"/>
</g>
</svg>
