<?xml version="1.0" encoding="utf-8"?>
<!-- Generator: Adobe Illustrator 26.1.0, SVG Export Plug-In . SVG Version: 6.00 Build 0)  -->
<svg version="1.1" xmlns="http://www.w3.org/2000/svg" xmlns:xlink="http://www.w3.org/1999/xlink" x="0px" y="0px"
	 viewBox="0 0 28 28" style="enable-background:new 0 0 28 28;" xml:space="preserve">
<style type="text/css">
	.st0{clip-path:url(#SVGID_00000030486067223978696390000012641389605216392610_);}
	.st1{fill:#E9E9E0;}
	.st2{fill:none;stroke:#C8BDB8;stroke-width:0.75;stroke-miterlimit:10;}
	.st3{fill:#D9D7CA;}
	.st4{fill:#FF5364;}
	.st5{fill:#FFFFFF;}
	.st6{font-family:'Tahoma';}
	.st7{font-size:5px;}
</style>
<g id="Guides">
</g>
<g id="Background">
	<g>
		<defs>
			
				<rect id="SVGID_1_" x="1.79" y="2.52" transform="matrix(-0.7071 0.7071 -0.7071 -0.7071 32.549 17.0178)" width="21.92" height="25.46"/>
		</defs>
		<clipPath id="SVGID_00000033369864043591044440000005059818214763524533_">
			<use xlink:href="#SVGID_1_"  style="overflow:visible;"/>
		</clipPath>
		<g style="clip-path:url(#SVGID_00000033369864043591044440000005059818214763524533_);">
			<path class="st1" d="M20.84,24H7.16C6.52,24,6,23.48,6,22.84V5.16C6,4.52,6.52,4,7.16,4h13.67C21.48,4,22,4.52,22,5.16v17.67
				C22,23.48,21.48,24,20.84,24z"/>
		</g>
	</g>
	<circle class="st2" cx="14" cy="11.5" r="5"/>
	<polyline class="st3" points="22,9 17,9 17,4 	"/>
	<rect x="6" y="19" class="st4" width="16" height="5"/>
	<text transform="matrix(1 0 0 1 10.073 23.4121)" class="st5 st6 st7">AVI</text>
	<path class="st2" d="M16.01,11.12l-2.7-1.56c-0.29-0.17-0.65,0.04-0.65,0.38v3.12c0,0.33,0.36,0.54,0.65,0.38l2.7-1.56
		C16.3,11.71,16.3,11.29,16.01,11.12z"/>
</g>
</svg>
