<?xml version="1.0" encoding="utf-8"?>
<!-- Generator: Adobe Illustrator 26.1.0, SVG Export Plug-In . SVG Version: 6.00 Build 0)  -->
<svg version="1.1" xmlns="http://www.w3.org/2000/svg" xmlns:xlink="http://www.w3.org/1999/xlink" x="0px" y="0px"
	 viewBox="0 0 28 28" style="enable-background:new 0 0 28 28;" xml:space="preserve">
<style type="text/css">
	.st0{clip-path:url(#SVGID_00000070814343067957621920000009051593051887341467_);}
	.st1{fill:#E9E9E0;}
	.st2{fill:#C8BDB8;}
	.st3{fill:#D9D7CA;}
	.st4{fill:#FF5364;}
	.st5{fill:#FFFFFF;}
	.st6{font-family:'Tahoma';}
	.st7{font-size:5px;}
</style>
<g id="Guides">
</g>
<g id="Background">
	<g>
		<defs>
			
				<rect id="SVGID_1_" x="1.79" y="2.52" transform="matrix(-0.7071 0.7071 -0.7071 -0.7071 32.549 17.0178)" width="21.92" height="25.46"/>
		</defs>
		<clipPath id="SVGID_00000079463741820183984530000006713252285194119856_">
			<use xlink:href="#SVGID_1_"  style="overflow:visible;"/>
		</clipPath>
		<g style="clip-path:url(#SVGID_00000079463741820183984530000006713252285194119856_);">
			<path class="st1" d="M20.84,24H7.16C6.52,24,6,23.48,6,22.84V5.16C6,4.52,6.52,4,7.16,4h13.67C21.48,4,22,4.52,22,5.16v17.67
				C22,23.48,21.48,24,20.84,24z"/>
		</g>
	</g>
	<path class="st2" d="M17.68,6.51c-3.55-0.12-6.45,1.19-6.45,1.19l0,6.64c-0.36-0.14-0.8-0.18-1.25-0.07
		c-0.96,0.23-1.59,1.04-1.41,1.8c0.18,0.76,1.11,1.19,2.08,0.95c0.91-0.22,1.52-0.95,1.43-1.67v-4.96c0,0,2.05-0.72,4.72-0.9v3.69
		c-0.36-0.14-0.79-0.17-1.23-0.06c-0.96,0.23-1.59,1.04-1.41,1.8c0.18,0.76,1.11,1.19,2.08,0.95c0.84-0.2,1.43-0.84,1.44-1.51l0,0
		V6.51L17.68,6.51z"/>
	<polyline class="st3" points="22,9 17,9 17,4 	"/>
	<rect x="6" y="19" class="st4" width="16" height="5"/>
	<text transform="matrix(1 0 0 1 7.3996 23.4121)" class="st5 st6 st7">IKLAX</text>
</g>
</svg>
